<?xml version="1.0" encoding="utf-8"?>
<!-- Generator: Adobe Illustrator 19.2.1, SVG Export Plug-In . SVG Version: 6.00 Build 0)  -->
<svg version="1.1" id="Слой_1" xmlns="http://www.w3.org/2000/svg" xmlns:xlink="http://www.w3.org/1999/xlink" x="0px" y="0px"
	 viewBox="0 0 381.8 43.4" style="enable-background:new 0 0 381.8 43.4;" xml:space="preserve">
<polygon points="23.8,27.7 7.4,27.7 7.4,0.6 0,0.6 0,33.4 23.8,33.4 "/>
<g>
	<path d="M34.2,14.9c0.9-0.9,2.2-1.4,3.8-1.4c1.5,0,2.8,0.4,3.8,1.3c1,0.9,1.6,2.2,1.7,3.9h-11C32.7,17,33.3,15.8,34.2,14.9
		 M29.6,31.2c2.5,2,5.4,3,8.6,3c4,0,7-1.3,9.2-3.7c1.4-1.5,2.2-2.9,2.4-4.5h-6.6c-0.4,0.8-0.8,1.4-1.3,1.8c-0.9,0.7-2.1,1.2-3.6,1.2
		c-1.4,0-2.6-0.4-3.5-1c-1.6-1-2.5-2.8-2.6-5.3h17.9c0-1.6,0-3.6-0.2-4.8c-0.3-1.9-0.9-3.6-2-5c-1.1-1.7-2.5-2.8-4.2-3.6
		c-1.7-0.8-3.6-1.1-5.8-1.1c-3.6,0-6.5,1.1-8.8,3.4c-2.3,2.3-3.4,5.5-3.4,9.8C25.8,25.9,27.1,29.2,29.6,31.2"/>
	<path d="M59.2,17.1c0.9-2.1,2.4-3.2,4.6-3.2c1.6,0,3,0.6,3.9,1.8c1,1.2,1.5,3,1.5,5.3c0,2.5-0.5,4.3-1.5,5.4
		c-1,1.1-2.3,1.7-3.8,1.7c-2.2,0-3.8-1-4.7-3.1c-0.5-1.1-0.7-2.4-0.7-3.8C58.6,19.6,58.8,18.2,59.2,17.1 M62.3,33.5
		c2,0,3.9-0.5,5.2-1.5c0.7-0.5,1.4-1.3,2.2-2.4v1.6c0,2.3-0.5,4-1,5c-0.8,1.5-2.4,2.3-4.7,2.3c-1.6,0-2.8-0.4-3.5-1
		c-0.4-0.3-0.7-0.9-0.9-1.7h-7c0.2,2.5,1.3,4.4,3.3,5.6c2,1.2,4.5,1.9,7.7,1.9c5.2,0,8.6-1.4,10.4-4.1c1.1-1.6,1.5-4,1.5-7.1V8.8
		h-5.7v3.6c-1.6-1.7-2.4-2.9-3.9-3.6c-0.9-0.4-2.1-0.6-3.3-0.6c-3.3,0-5.9,1.2-7.7,3.7c-1.8,2.5-2.7,5.5-2.7,9.2
		c0,3.8,0.9,6.8,2.8,9C56.6,32.4,59.1,33.5,62.3,33.5"/>
	<path d="M88,14.9c0.9-0.9,2.2-1.4,3.8-1.4c1.5,0,2.8,0.4,3.8,1.3c1,0.9,1.6,2.2,1.7,3.9h-11C86.5,17,87.1,15.8,88,14.9 M83.4,31.2
		c2.5,2,5.4,3,8.6,3c4,0,7-1.3,9.2-3.7c1.4-1.5,2.2-2.9,2.4-4.5h-6.6c-0.4,0.8-0.8,1.4-1.3,1.8c-0.9,0.7-2.1,1.2-3.6,1.2
		c-1.4,0-2.6-0.4-3.5-1c-1.6-1-2.5-2.8-2.6-5.3H104c0-1.6,0-3.6-0.2-4.8c-0.3-1.9-1-3.6-2-5c-1.1-1.7-2.5-2.8-4.2-3.6
		c-1.7-0.8-3.6-1.1-5.8-1.1c-3.6,0-6.5,1.1-8.8,3.4c-2.3,2.3-3.4,5.5-3.4,9.8C79.6,25.9,80.9,29.2,83.4,31.2"/>
	<path d="M113.9,20.1c0-1.5,0.1-2.8,0.5-3.7c0.8-1.8,2.2-2.8,4.4-2.8c1.8,0,3,0.6,3.6,1.9c0.3,0.7,0.5,1.7,0.5,3v14.9h6.6V16.9
		c0-3.1-0.8-5.3-2.4-6.6c-1.6-1.3-3.7-2-6.2-2c-2,0-3.9,0.5-5.2,1.5c-0.7,0.6-1.7,1.5-2.5,2.7V8.8h-5.7v24.6h6.6V20.1z"/>
	<path d="M141.7,16c0.9-1.4,2.3-2.1,4.1-2.1c1.2,0,2.3,0.4,3.2,1.2c1.5,1.3,2.3,3.4,2.3,6.4c0,2.1-0.5,3.9-1.4,5.2
		c-0.9,1.4-2.3,2-4.1,2c-1.8,0-3.2-0.7-4.1-2c-0.9-1.4-1.3-3.2-1.3-5.4C140.4,19.2,140.9,17.4,141.7,16 M144,34.2
		c1.7,0,3.2-0.3,4.4-1c1.2-0.7,2.4-1.7,3.2-3.2v3.4h5.7V0.6h-5.7V12c-0.8-1.2-1.8-2.1-3-2.7c-1.2-0.7-2.6-1-4.1-1
		c-3.2,0-5.8,1.2-7.8,3.6c-1.9,2.4-2.9,5.7-2.9,9.9c0,3.6,1,6.6,2.9,8.9C138.7,33,141.1,34.2,144,34.2"/>
</g>
<polygon points="185,9.7 198.5,33.6 205.5,33.6 205.5,0 198.9,0 198.9,23.2 185.8,0 178.5,0 178.5,33.6 185,33.6 "/>
<g>
	<path d="M216.1,18.8c0.2-1.6,0.8-3,1.7-4c0.9-0.9,2.2-1.5,3.8-1.5c1.5,0,2.8,0.6,3.8,1.4c1,0.9,1.6,2.4,1.7,4H216.1z M231.6,12.8
		c-1.1-1.7-2.5-2.9-4.2-3.6c-1.7-0.8-3.6-1.1-5.8-1.1c-3.6,0-6.5,1.1-8.8,3.4c-2.3,2.3-3.4,5.5-3.4,9.8c0,4.5,1.2,7.8,3.7,9.8
		c2.5,2,5.4,3,8.6,3c4,0,7-1.1,9.2-3.5c1.4-1.5,2.2-2.7,2.4-4.3h-6.6c-0.4,0.8-0.8,1.2-1.3,1.6c-0.9,0.7-2.1,1.1-3.6,1.1
		c-1.4,0-2.6-0.2-3.5-0.8c-1.6-1-2.5-2.6-2.6-5.1h17.9c0-2.5,0-3.8-0.2-5C233.3,16,232.6,14.3,231.6,12.8"/>
</g>
<polygon points="245,26.6 241.2,9 234.3,9 241.2,33.6 247.9,33.6 251.8,15.7 255.6,33.6 262.2,33.6 269.3,9 262.6,9 258.8,26.7 
	255.1,9 248.6,9 "/>
<polygon points="294.8,33.6 302.2,33.6 302.2,20.8 313,0 305.1,0 298.5,14.4 291.6,0 283.5,0 294.8,20.8 "/>
<g>
	<path d="M328.4,26.7c-1,1.3-2.4,2-4.3,2c-1.9,0-3.3-0.7-4.3-2c-1-1.3-1.5-3.2-1.5-5.7c0-2.5,0.5-4.4,1.5-5.7c1-1.3,2.5-2,4.3-2
		c1.9,0,3.3,0.7,4.3,2c1,1.3,1.5,3.2,1.5,5.7C329.9,23.4,329.4,25.3,328.4,26.7 M324.1,7.9c-4.2,0-7.4,1.3-9.4,3.9
		c-2.1,2.6-3.1,5.7-3.1,9.2c0,3.6,1,6.7,3.1,9.2c2.1,2.6,5.2,3.8,9.4,3.8c4.2,0,7.4-1.3,9.4-3.8c2.1-2.6,3.1-5.6,3.1-9.2
		c0-3.5-1-6.6-3.1-9.2C331.4,9.2,328.3,7.9,324.1,7.9"/>
	<path d="M347.2,21.5c0-2,0.4-3.4,0.9-4.4c0.9-1.7,2.7-2.5,5.3-2.5c0.2,0,0.5,0,0.8,0c0.3,0,0.3,0,1.1,0.1V8.1c0,0-0.5,0-0.6,0
		c-0.1,0-0.2,0-0.3,0c-1.9,0-3.5,0.5-4.7,1.5c-0.7,0.6-1.8,1.7-2.6,3.4V9h-5.7v24.6h5.7V21.5z"/>
</g>
<polygon points="365.3,25.5 368,22.9 374,33.6 381.8,33.6 372.6,18.2 381.4,9 373.5,9 365.3,18 365.3,0 358.7,0 358.7,33.6 
	365.3,33.6 "/>
</svg>
