<svg xmlns="http://www.w3.org/2000/svg" viewBox="0 0 397.36 190.46"><defs><style>.cls-1{fill:#ffffff;}</style></defs><title>logo</title><path class="cls-1" d="M0,152.21H397.36V0H0V152.21ZM12.29,12.29H385.07V140.1H12.29V12.29Z"/><polygon class="cls-1" points="60.63 59.81 44.24 59.81 44.24 32.77 36.87 32.77 36.87 65.55 60.63 65.55 60.63 59.81"/><path class="cls-1" d="M71,47a5.07,5.07,0,0,1,3.83-1.39,5.61,5.61,0,0,1,3.8,1.3,5.44,5.44,0,0,1,1.71,3.86h-11A6.43,6.43,0,0,1,71,47M66.46,63.37a13.38,13.38,0,0,0,8.64,3,12,12,0,0,0,9.23-3.68,7.71,7.71,0,0,0,2.38-4.54H80.16A4.88,4.88,0,0,1,78.84,60a5.46,5.46,0,0,1-3.56,1.18,6.54,6.54,0,0,1-3.54-1c-1.61-1-2.46-2.79-2.57-5.25H87a33.22,33.22,0,0,0-.21-4.77,11.85,11.85,0,0,0-2-5,9.94,9.94,0,0,0-4.24-3.61,14,14,0,0,0-5.77-1.14,11.83,11.83,0,0,0-8.77,3.41c-2.26,2.27-3.38,5.53-3.38,9.78q0,6.8,3.74,9.83"/><path class="cls-1" d="M96.12,49.21A4.63,4.63,0,0,1,100.75,46a4.79,4.79,0,0,1,3.93,1.82,8.32,8.32,0,0,1,1.47,5.31q0,3.71-1.55,5.41a4.92,4.92,0,0,1-3.79,1.7,4.67,4.67,0,0,1-4.66-3.11,9.54,9.54,0,0,1-.72-3.8,11.25,11.25,0,0,1,.68-4.16m3,16.45a8.6,8.6,0,0,0,5.17-1.46,12.72,12.72,0,0,0,2.18-2.37v1.58a11.23,11.23,0,0,1-1,5c-0.78,1.54-2.43,2.32-4.74,2.32a5.53,5.53,0,0,1-3.54-1A3.08,3.08,0,0,1,96.34,68h-7a7,7,0,0,0,3.28,5.63,14.38,14.38,0,0,0,7.68,1.9c5.19,0,8.59-1.35,10.43-4.11,1.06-1.61,1.49-4,1.49-7.13V41h-5.73v3.59c-1.64-1.72-2.37-2.91-3.93-3.55a8.77,8.77,0,0,0-3.29-.56,9,9,0,0,0-7.75,3.73,15.18,15.18,0,0,0-2.74,9.2c0,3.78.93,6.78,2.81,9a9.4,9.4,0,0,0,7.54,3.32"/><path class="cls-1" d="M124.83,47a5.08,5.08,0,0,1,3.83-1.39,5.61,5.61,0,0,1,3.8,1.3,5.43,5.43,0,0,1,1.71,3.86h-11A6.47,6.47,0,0,1,124.83,47m-4.58,16.34a13.38,13.38,0,0,0,8.64,3,12,12,0,0,0,9.23-3.68,7.73,7.73,0,0,0,2.38-4.54H134A4.93,4.93,0,0,1,132.63,60a5.47,5.47,0,0,1-3.56,1.18,6.55,6.55,0,0,1-3.54-1c-1.61-1-2.47-2.79-2.57-5.25h17.87a33.28,33.28,0,0,0-.21-4.77,11.89,11.89,0,0,0-2-5,9.93,9.93,0,0,0-4.24-3.61,14,14,0,0,0-5.77-1.14,11.83,11.83,0,0,0-8.77,3.41c-2.25,2.27-3.38,5.53-3.38,9.78q0,6.8,3.75,9.83"/><path class="cls-1" d="M150.75,52.27a9.68,9.68,0,0,1,.52-3.74,4.36,4.36,0,0,1,4.39-2.77,3.62,3.62,0,0,1,3.58,1.89,6.91,6.91,0,0,1,.52,3V65.55h6.55V49c0-3.07-.83-5.28-2.43-6.6a9.42,9.42,0,0,0-6.21-2,8.72,8.72,0,0,0-5.21,1.49,11,11,0,0,0-2.54,2.72V41H144.2V65.55h6.55V52.27Z"/><path class="cls-1" d="M178.6,48.17A4.5,4.5,0,0,1,182.72,46,4.89,4.89,0,0,1,186,47.21q2.27,1.93,2.27,6.44a8.92,8.92,0,0,1-1.42,5.24,4.73,4.73,0,0,1-4.14,2,4.53,4.53,0,0,1-4.06-2,9.77,9.77,0,0,1-1.34-5.43,9.85,9.85,0,0,1,1.32-5.28m2.24,18.15a9,9,0,0,0,4.42-1,8.48,8.48,0,0,0,3.18-3.17v3.39h5.73V32.78h-5.73V44.13a9.3,9.3,0,0,0-3-2.71,8.29,8.29,0,0,0-4.06-1A9.5,9.5,0,0,0,173.6,44c-1.93,2.4-2.92,5.69-2.92,9.88a13.35,13.35,0,0,0,2.93,8.92,9.09,9.09,0,0,0,7.23,3.48"/><polygon class="cls-1" points="43.42 94.05 56.86 117.98 63.91 117.98 63.91 84.39 57.35 84.39 57.35 107.55 44.16 84.39 36.87 84.39 36.87 117.98 43.42 117.98 43.42 94.05"/><path class="cls-1" d="M74.46,103.23a7.06,7.06,0,0,1,1.71-4A5.13,5.13,0,0,1,80,97.78a5.72,5.72,0,0,1,3.81,1.45,5.79,5.79,0,0,1,1.71,4H74.46Zm15.55-6a10,10,0,0,0-4.24-3.63A14,14,0,0,0,80,92.41a11.84,11.84,0,0,0-8.77,3.4q-3.38,3.4-3.38,9.78,0,6.8,3.74,9.82a13.36,13.36,0,0,0,8.64,3c4,0,7-1.09,9.23-3.48,1.41-1.5,2.21-2.7,2.38-4.34H85.29A4.08,4.08,0,0,1,84,112.2a5.41,5.41,0,0,1-3.56,1.07,6.49,6.49,0,0,1-3.54-.84c-1.61-1-2.47-2.64-2.56-5.1H92.17a30.62,30.62,0,0,0-.21-5,12.48,12.48,0,0,0-2-5.17"/><polygon class="cls-1" points="103.45 111 99.63 93.4 92.74 93.4 99.63 117.98 106.29 117.98 110.19 100.11 114.03 117.98 120.63 117.98 127.74 93.4 121.05 93.4 117.23 111.07 113.49 93.4 106.98 93.4 103.45 111"/><polygon class="cls-1" points="153.21 117.98 160.58 117.98 160.58 105.15 171.39 84.39 163.54 84.39 156.94 98.84 150.05 84.39 141.88 84.39 153.21 105.15 153.21 117.98"/><path class="cls-1" d="M186.76,111a5.68,5.68,0,0,1-8.65,0,9.24,9.24,0,0,1-1.52-5.68,9.21,9.21,0,0,1,1.52-5.68,5.7,5.7,0,0,1,8.65,0,9.23,9.23,0,0,1,1.51,5.68,9.27,9.27,0,0,1-1.51,5.68m-4.3-18.77q-6.33,0-9.43,3.89a15.22,15.22,0,0,0,0,18.43q3.1,3.83,9.43,3.84t9.43-3.84a15.22,15.22,0,0,0,0-18.43q-3.11-3.89-9.43-3.89"/><path class="cls-1" d="M205.64,105.87a9.5,9.5,0,0,1,.91-4.37c0.89-1.68,2.7-2.52,5.29-2.52l0.84,0c0.31,0,.33,0,1.15.09V92.52s-0.5,0-.58,0h-0.32A7.07,7.07,0,0,0,208.25,94a10.4,10.4,0,0,0-2.61,3.35V93.4h-5.73V118h5.73V105.87Z"/><polygon class="cls-1" points="223.67 109.87 226.38 107.31 232.37 117.98 240.18 117.98 231.04 102.62 239.83 93.4 231.86 93.4 223.67 102.42 223.67 84.39 217.11 84.39 217.11 117.98 223.67 117.98 223.67 109.87"/><path class="cls-1" d="M15.66,173.42a5.34,5.34,0,0,1,4.36-2c3.8,0,5.91,3.16,5.91,7.09,0,4.41-2.49,7.41-6.13,7.41a5,5,0,0,1-4.33-2.11l0,1.74H11.89v-19h3.77v6.93Zm-0.13,5.14c0,2.67,1.26,4.31,3.32,4.31s3.26-1.71,3.26-4.33-1.28-4.2-3.26-4.2S15.53,176,15.53,178.56Z"/><path class="cls-1" d="M34.76,185.94c-4.25,0-7.06-2.89-7.06-7.22s2.92-7.38,6.93-7.38c4.17,0,6.82,3,6.82,7.89v0.37h-9.9c0.05,2.38,1.2,3.66,3.24,3.66a2.76,2.76,0,0,0,2.81-2h3.64A6.36,6.36,0,0,1,34.76,185.94Zm-0.13-11.85c-1.69,0-2.86,1.18-3.08,3.1h6C37.44,175.51,36.53,174.09,34.63,174.09Z"/><path class="cls-1" d="M52.61,185.54a4.09,4.09,0,0,1-.27-1.34,6.26,6.26,0,0,1-4.47,1.74c-3,0-4.92-1.58-4.92-4.17,0-3.61,3.29-4,6-4.39,2.46-.32,3.37-0.54,3.37-1.66s-0.8-1.85-2.49-1.85-2.46.54-2.73,2.11H43.57c0.21-3.08,2.41-4.65,6.39-4.65,2.78,0,6,.64,6,4.49v6a9.33,9.33,0,0,0,.48,3.75H52.61Zm-3-6c-1.31.21-2.78,0.38-2.78,2.06a1.82,1.82,0,0,0,2.09,1.85c2,0,3.37-1.1,3.37-3.08v-1.55A7.24,7.24,0,0,1,49.64,179.55Z"/><path class="cls-1" d="M71.92,185.54H68.31v-2a5.14,5.14,0,0,1-4.49,2.35c-3,0-4.81-1.63-4.81-4.92v-9.28h3.83v7.89c0,1.74.16,3.13,2.33,3.13,2.38,0,3-1.82,3-3.91v-7.12h3.77v13.8Z"/><path class="cls-1" d="M82.44,174.31H79.63v6.5c0,1.34,0,2,1.66,2a8.8,8.8,0,0,0,1.15-.05v2.89c-1,.08-1.44.11-2.3,0.11-3.26,0-4.28-.86-4.28-4.23v-7.17h-2.3v-2.57h2.3v-4.17h3.77v4.17h2.81v2.57Z"/><path class="cls-1" d="M91.72,185.49c-1.12,3-1.77,5-5.27,5-1.18,0-.7,0-2.54,0v-3.13h1.85a1.71,1.71,0,0,0,1.93-1.85,2.1,2.1,0,0,0-.11-0.54l-5-13.19h4.09l3.16,9.39,3-9.39H96.8Z"/><path class="cls-1" d="M113.71,175.75c-0.21-1.44-1.1-1.9-2.62-1.9-1.34,0-2.14.51-2.14,1.36,0,1.15,1.18,1.31,3.37,1.77,2.49,0.51,5.38,1.15,5.38,4.28,0,2.89-2.38,4.68-6.31,4.68-3.45,0-6.42-1.36-6.47-4.9h3.61c0.13,1.66,1.2,2.3,2.94,2.3,1.55,0,2.51-.67,2.51-1.71s-1.12-1.39-3.1-1.85c-2.46-.56-5.67-0.94-5.67-4.23,0-2.7,2.19-4.23,6-4.23,3.16,0,5.88,1.2,6,4.41h-3.53Z"/><path class="cls-1" d="M126.45,185.94c-4.25,0-7.06-2.89-7.06-7.22s2.92-7.38,6.93-7.38c4.17,0,6.82,3,6.82,7.89v0.37h-9.9c0.05,2.38,1.2,3.66,3.24,3.66a2.76,2.76,0,0,0,2.81-2h3.64A6.36,6.36,0,0,1,126.45,185.94Zm-0.13-11.85c-1.69,0-2.86,1.18-3.08,3.1h6C129.12,175.51,128.21,174.09,126.31,174.09Z"/><path class="cls-1" d="M144.26,175a6.74,6.74,0,0,0-1.47-.16c-2.62,0-3.64,1.87-3.64,4.39v6.31h-3.8v-13.8H139v2.54a4.75,4.75,0,0,1,4.47-2.86,5,5,0,0,1,.83.08V175Z"/><path class="cls-1" d="M158.07,171.74l-4.68,13.8h-4.25l-4.73-13.8h4l2.94,9.42,2.94-9.42h3.77Z"/><path class="cls-1" d="M163.52,169.71h-3.8V166.5h3.8v3.21Zm0,15.83h-3.8v-13.8h3.8v13.8Z"/><path class="cls-1" d="M173.08,185.89c-4.25,0-7-2.83-7-7.14,0-4.47,2.81-7.41,7.09-7.41,3.69,0,6.15,2,6.47,5.22h-3.72a2.62,2.62,0,0,0-2.73-2.38c-2.06,0-3.29,1.66-3.29,4.49S171,183,173.08,183c1.63,0,2.65-1,2.94-2.78h3.66C179.2,183.8,176.74,185.89,173.08,185.89Z"/><path class="cls-1" d="M188.38,185.94c-4.25,0-7.06-2.89-7.06-7.22s2.92-7.38,6.93-7.38c4.17,0,6.82,3,6.82,7.89v0.37h-9.9c0.05,2.38,1.2,3.66,3.24,3.66a2.76,2.76,0,0,0,2.81-2h3.64A6.36,6.36,0,0,1,188.38,185.94Zm-0.13-11.85c-1.68,0-2.86,1.18-3.08,3.1h6C191.05,175.51,190.14,174.09,188.24,174.09Z"/><path class="cls-1" d="M205.37,175.75c-0.21-1.44-1.1-1.9-2.62-1.9-1.34,0-2.14.51-2.14,1.36,0,1.15,1.18,1.31,3.37,1.77,2.49,0.51,5.38,1.15,5.38,4.28,0,2.89-2.38,4.68-6.31,4.68-3.45,0-6.42-1.36-6.47-4.9h3.61c0.13,1.66,1.2,2.3,2.94,2.3,1.55,0,2.52-.67,2.52-1.71s-1.12-1.39-3.1-1.85c-2.46-.56-5.67-0.94-5.67-4.23,0-2.7,2.19-4.23,6-4.23,3.16,0,5.88,1.2,6,4.41h-3.53Z"/></svg>